<svg width="44" height="44" viewBox="0 0 44 44" fill="none" xmlns="http://www.w3.org/2000/svg">
<path d="M43.9128 28.0712C42.519 32.6222 39.7256 36.6176 35.9302 39.4888C32.598 41.9973 28.6327 43.5272 24.4794 43.9069C20.3262 44.2865 16.1493 43.5008 12.4177 41.6379C8.68607 39.775 5.54739 36.9088 3.35394 33.3608C1.16049 29.8128 -0.000904435 25.7236 0.000105589 21.5521C-0.0148894 16.6831 1.56762 11.9436 4.50486 8.06077C7.37542 4.26453 11.3699 1.47056 15.9199 0.0764443C16.2198 -0.0159143 16.5392 -0.0247583 16.8437 0.0508635C17.1482 0.126485 17.4264 0.283712 17.6483 0.505634C17.8701 0.727555 18.0273 1.00578 18.1029 1.31037C18.1785 1.61497 18.1697 1.93442 18.0774 2.23437C17.0824 5.52613 16.999 9.02621 17.836 12.3617C18.673 15.6971 20.399 18.7429 22.8301 21.1746C25.2612 23.6063 28.3064 25.3327 31.6411 26.1698C34.9758 27.007 38.4751 26.9235 41.7661 25.9284C42.066 25.836 42.3854 25.8272 42.6899 25.9028C42.9944 25.9784 43.2726 26.1357 43.4945 26.3576C43.7164 26.5795 43.8735 26.8577 43.9491 27.1623C44.0248 27.4669 44.0159 27.7864 43.9236 28.0863L43.9128 28.0712Z" fill="#F6F6F6"/>
</svg>
